<svg width="323" height="54" viewBox="0 0 323 54" fill="none" xmlns="http://www.w3.org/2000/svg">
<path d="M17.8681 4V3H17.1671L16.9281 3.6589L17.8681 4ZM27.7031 4L28.6429 3.65831L28.4036 3H27.7031V4ZM45.5181 53V54H46.9457L46.4579 52.6583L45.5181 53ZM36.4531 53L35.5131 53.3411L35.7522 54H36.4531V53ZM33.3031 44.32L34.2431 43.9789L34.004 43.32H33.3031V44.32ZM12.3031 44.32V43.32H11.6022L11.3631 43.9789L12.3031 44.32ZM9.15309 53V54H9.854L10.0931 53.3411L9.15309 53ZM0.0880861 53L-0.851943 52.6589L-1.33857 54H0.0880861V53ZM15.4181 35.78L14.4784 35.438L13.99 36.78H15.4181V35.78ZM30.1531 35.78V36.78H31.5835L31.0923 35.4366L30.1531 35.78ZM22.7681 15.585L23.7073 15.2416L22.7659 12.6672L21.8284 15.243L22.7681 15.585ZM17.8681 5H27.7031V3H17.8681V5ZM26.7633 4.34169L44.5783 53.3417L46.4579 52.6583L28.6429 3.65831L26.7633 4.34169ZM45.5181 52H36.4531V54H45.5181V52ZM37.3931 52.6589L34.2431 43.9789L32.3631 44.6611L35.5131 53.3411L37.3931 52.6589ZM33.3031 43.32H12.3031V45.32H33.3031V43.32ZM11.3631 43.9789L8.21307 52.6589L10.0931 53.3411L13.2431 44.6611L11.3631 43.9789ZM9.15309 52H0.0880861V54H9.15309V52ZM1.02811 53.3411L18.8081 4.34109L16.9281 3.6589L-0.851943 52.6589L1.02811 53.3411ZM15.4181 36.78H30.1531V34.78H15.4181V36.78ZM31.0923 35.4366L23.7073 15.2416L21.8289 15.9284L29.2139 36.1234L31.0923 35.4366ZM21.8284 15.243L14.4784 35.438L16.3578 36.122L23.7078 15.927L21.8284 15.243ZM75.4579 0.499996V-0.500004H74.4579V0.499996H75.4579ZM83.9978 0.499996H84.9978V-0.500004H83.9978V0.499996ZM83.9978 53V54H84.9978V53H83.9978ZM75.4579 53H74.4579V54H75.4579V53ZM75.4579 48.625H76.4579V45.5121L74.6449 48.0426L75.4579 48.625ZM58.1679 52.475L58.5641 51.5569L58.1679 52.475ZM52.2879 48.52L51.5758 49.2223L51.5856 49.232L52.2879 48.52ZM48.3329 42.64L47.4147 43.0363L48.3329 42.64ZM48.3329 28.36L47.4147 27.9637L48.3329 28.36ZM52.2879 22.515L52.995 23.2221L52.2879 22.515ZM58.1679 18.525L57.7716 17.6069L58.1679 18.525ZM71.2229 18.56L70.7241 19.4268L70.7332 19.4319L71.2229 18.56ZM75.4579 22.375L74.6409 22.9517L76.4579 25.5257V22.375H75.4579ZM70.2429 44.32L69.6979 43.4816L70.2429 44.32ZM73.5329 40.645L74.4218 41.103L74.4246 41.0975L73.5329 40.645ZM73.5329 30.355L72.6411 30.8075L72.6439 30.813L73.5329 30.355ZM70.2079 26.645L69.6628 27.4835L69.6692 27.4875L70.2079 26.645ZM60.5129 26.68L61.0392 27.5303L61.0489 27.5242L60.5129 26.68ZM56.9779 30.355L57.8445 30.854V30.854L56.9779 30.355ZM56.9779 40.645L57.8445 40.146L56.9779 40.645ZM60.5129 44.32L59.9865 45.1703L59.9925 45.1739L60.5129 44.32ZM75.4579 1.5H83.9978V-0.500004H75.4579V1.5ZM82.9978 0.499996V53H84.9978V0.499996H82.9978ZM83.9978 52H75.4579V54H83.9978V52ZM76.4579 53V48.625H74.4579V53H76.4579ZM74.6449 48.0426C73.61 49.4872 72.3064 50.6629 70.7242 51.5732L71.7215 53.3068C73.546 52.2571 75.0657 50.8895 76.2708 49.2074L74.6449 48.0426ZM70.7242 51.5732C69.1927 52.4543 67.3977 52.91 65.3079 52.91V54.91C67.698 54.91 69.8463 54.3857 71.7215 53.3068L70.7242 51.5732ZM65.3079 52.91C62.8934 52.91 60.649 52.4567 58.5641 51.5569L57.7716 53.3931C60.12 54.4067 62.6357 54.91 65.3079 54.91V52.91ZM58.5641 51.5569C56.4603 50.6489 54.6043 49.4001 52.9901 47.808L51.5856 49.232C53.3781 50.9999 55.4421 52.3878 57.7716 53.3931L58.5641 51.5569ZM52.9998 47.8178C51.4077 46.2036 50.159 44.3476 49.251 42.2437L47.4147 43.0363C48.4201 45.3657 49.808 47.4297 51.5759 49.2222L52.9998 47.8178ZM49.251 42.2437C48.3512 40.1588 47.8979 37.9145 47.8979 35.5H45.8979C45.8979 38.1722 46.4012 40.6878 47.4147 43.0363L49.251 42.2437ZM47.8979 35.5C47.8979 33.0855 48.3512 30.8412 49.251 28.7562L47.4147 27.9637C46.4012 30.3122 45.8979 32.8278 45.8979 35.5H47.8979ZM49.251 28.7562C50.1584 26.6537 51.4058 24.8113 52.995 23.2221L51.5807 21.8079C49.8099 23.5787 48.4206 25.633 47.4147 27.9637L49.251 28.7562ZM52.995 23.2221C54.6087 21.6083 56.4632 20.3498 58.5641 19.4431L57.7716 17.6069C55.4392 18.6135 53.3736 20.015 51.5807 21.8079L52.995 23.2221ZM58.5641 19.4431C60.649 18.5433 62.8934 18.09 65.3079 18.09V16.09C62.6357 16.09 60.12 16.5933 57.7716 17.6069L58.5641 19.4431ZM65.3079 18.09C67.3977 18.09 69.1927 18.5457 70.7242 19.4268L71.7215 17.6932C69.8463 16.6143 67.698 16.09 65.3079 16.09V18.09ZM70.7332 19.4319C72.3076 20.3162 73.6072 21.4873 74.6409 22.9517L76.2748 21.7983C75.0685 20.0894 73.5448 18.7172 71.7125 17.6881L70.7332 19.4319ZM76.4579 22.375V0.499996H74.4579V22.375H76.4579ZM65.4128 46.685C67.4082 46.685 69.2111 46.1833 70.7878 45.1584L69.6979 43.4816C68.4746 44.2767 67.0575 44.685 65.4128 44.685V46.685ZM70.7878 45.1584C72.3392 44.15 73.552 42.7915 74.4218 41.103L72.6439 40.187C71.9271 41.5785 70.9465 42.67 69.6979 43.4816L70.7878 45.1584ZM74.4246 41.0975C75.2937 39.3849 75.7229 37.5135 75.7229 35.5H73.7229C73.7229 37.2199 73.3587 38.7784 72.6411 40.1925L74.4246 41.0975ZM75.7229 35.5C75.7229 33.4655 75.2946 31.5913 74.4218 29.897L72.6439 30.813C73.3578 32.1987 73.7229 33.7545 73.7229 35.5H75.7229ZM74.4246 29.9025C73.5537 28.1862 72.3261 26.8124 70.7465 25.8025L69.6692 27.4875C70.9363 28.2976 71.9254 29.3971 72.6411 30.8075L74.4246 29.9025ZM70.7528 25.8066C69.1782 24.783 67.3876 24.28 65.4128 24.28V26.28C67.0314 26.28 68.4375 26.687 69.6629 27.4834L70.7528 25.8066ZM65.4128 24.28C63.4327 24.28 61.6124 24.7973 59.9768 25.8358L61.0489 27.5242C62.3533 26.696 63.7997 26.28 65.4128 26.28V24.28ZM59.9865 25.8297C58.3717 26.8294 57.0781 28.1767 56.1112 29.856L57.8445 30.854C58.6509 29.4533 59.714 28.3506 61.0392 27.5303L59.9865 25.8297ZM56.1112 29.856C55.1316 31.5575 54.6479 33.4464 54.6479 35.5H56.6479C56.6479 33.7736 57.0508 32.2325 57.8445 30.854L56.1112 29.856ZM54.6479 35.5C54.6479 37.5536 55.1316 39.4425 56.1112 41.144L57.8445 40.146C57.0508 38.7675 56.6479 37.2264 56.6479 35.5H54.6479ZM56.1112 41.144C57.0781 42.8233 58.3717 44.1706 59.9865 45.1703L61.0392 43.4697C59.714 42.6494 58.6509 41.5467 57.8445 40.146L56.1112 41.144ZM59.9925 45.1739C61.6449 46.1809 63.4587 46.685 65.4128 46.685V44.685C63.8204 44.685 62.3675 44.2791 61.0332 43.4661L59.9925 45.1739ZM113.456 53V54H114.156L114.396 53.3417L113.456 53ZM102.431 53L101.491 53.3417L101.73 54H102.431V53ZM89.6908 17.965V16.965H88.2631L88.751 18.3067L89.6908 17.965ZM98.7908 17.965L99.7305 17.623L99.4911 16.965H98.7908V17.965ZM107.961 43.165L107.021 43.507L107.963 46.0943L108.901 43.5058L107.961 43.165ZM117.096 17.965V16.965H116.395L116.156 17.6242L117.096 17.965ZM126.196 17.965L127.136 18.3067L127.624 16.965H126.196V17.965ZM113.456 52H102.431V54H113.456V52ZM103.371 52.6583L90.6306 17.6233L88.751 18.3067L101.491 53.3417L103.371 52.6583ZM89.6908 18.965H98.7908V16.965H89.6908V18.965ZM97.8511 18.3069L107.021 43.507L108.901 42.823L99.7305 17.623L97.8511 18.3069ZM108.901 43.5058L118.036 18.3058L116.156 17.6242L107.021 42.8242L108.901 43.5058ZM117.096 18.965H126.196V16.965H117.096V18.965ZM125.256 17.6233L112.516 52.6583L114.396 53.3417L127.136 18.3067L125.256 17.6233ZM157.156 18V17H156.066L156.159 18.0856L157.156 18ZM165.696 18H166.696V17H165.696V18ZM165.696 53V54H166.696V53H165.696ZM157.121 53L156.124 53.0804L156.198 54H157.121V53ZM156.771 48.66L157.767 48.5796L157.525 45.5738L155.923 48.1289L156.771 48.66ZM152.921 52.475L153.442 53.328L153.446 53.3258L152.921 52.475ZM134.126 48.38L133.418 49.0871L134.126 48.38ZM130.101 42.395L129.179 42.7843L130.101 42.395ZM130.031 28.08L130.954 28.4632L130.031 28.08ZM133.881 22.305L134.588 23.0121L133.881 22.305ZM152.851 18.56L152.359 19.431L152.364 19.4336L152.851 18.56ZM157.541 22.48L156.763 23.1089L158.816 25.6476L158.537 22.3944L157.541 22.48ZM152.501 44.25L153.071 45.0712L152.501 44.25ZM155.616 40.435L154.703 40.0252L154.701 40.0314L155.616 40.435ZM156.491 35.115L157.488 35.0429L157.487 35.0342L157.487 35.0256L156.491 35.115ZM154.881 30.18L154.027 30.7004L154.03 30.7064L154.881 30.18ZM151.381 26.61L150.852 27.4588L151.381 26.61ZM141.616 26.715L141.07 25.8768L141.064 25.8809L141.616 26.715ZM138.256 30.565L139.15 31.0122L139.153 31.007L138.256 30.565ZM137.311 35.885L136.314 35.968L136.315 35.9782L136.316 35.9883L137.311 35.885ZM139.061 40.82L138.224 41.3687L138.228 41.3747L139.061 40.82ZM142.771 44.355L142.26 45.2149L142.266 45.2183L142.771 44.355ZM157.156 19H165.696V17H157.156V19ZM164.696 18V53H166.696V18H164.696ZM165.696 52H157.121V54H165.696V52ZM158.117 52.9196L157.767 48.5796L155.774 48.7404L156.124 53.0804L158.117 52.9196ZM155.923 48.1289C155.025 49.561 153.853 50.7238 152.395 51.6242L153.446 53.3258C155.162 52.2662 156.556 50.8857 157.618 49.1911L155.923 48.1289ZM152.399 51.622C151.016 52.4681 149.359 52.91 147.391 52.91V54.91C149.668 54.91 151.698 54.3952 153.442 53.328L152.399 51.622ZM147.391 52.91C144.93 52.91 142.639 52.4453 140.508 51.5223L139.713 53.3577C142.108 54.3947 144.671 54.91 147.391 54.91V52.91ZM140.508 51.5223C138.359 50.5919 136.469 49.3096 134.833 47.6729L133.418 49.0871C135.235 50.9038 137.335 52.3281 139.713 53.3577L140.508 51.5223ZM134.833 47.6729C133.198 46.038 131.928 44.151 131.022 42.0057L129.179 42.7843C130.186 45.1656 131.6 47.2687 133.418 49.0871L134.833 47.6729ZM131.022 42.0057C130.12 39.8721 129.666 37.5786 129.666 35.115H127.666C127.666 37.8314 128.168 40.3912 129.179 42.7843L131.022 42.0057ZM129.666 35.115C129.666 32.743 130.097 30.5289 130.954 28.4632L129.107 27.6968C128.144 30.0178 127.666 32.4937 127.666 35.115H129.666ZM130.954 28.4632C131.815 26.3893 133.025 24.5748 134.588 23.0121L133.173 21.5979C131.423 23.3486 130.066 25.384 129.107 27.6968L130.954 28.4632ZM134.588 23.0121C136.154 21.4458 137.961 20.2223 140.016 19.3386L139.225 17.5014C136.94 18.4844 134.92 19.8508 133.173 21.5979L134.588 23.0121ZM140.016 19.3386C142.054 18.462 144.252 18.02 146.621 18.02V16.02C143.996 16.02 141.527 16.5113 139.225 17.5014L140.016 19.3386ZM146.621 18.02C148.802 18.02 150.706 18.4984 152.359 19.431L153.342 17.689C151.355 16.5682 149.105 16.02 146.621 16.02V18.02ZM152.364 19.4336C154.099 20.4002 155.563 21.625 156.763 23.1089L158.318 21.8511C156.952 20.1616 155.288 18.7731 153.337 17.6864L152.364 19.4336ZM158.537 22.3944L158.152 17.9144L156.159 18.0856L156.544 22.5656L158.537 22.3944ZM147.636 46.685C149.682 46.685 151.508 46.1573 153.071 45.0712L151.93 43.4288C150.74 44.256 149.322 44.685 147.636 44.685V46.685ZM153.071 45.0712C154.604 44.0059 155.759 42.5874 156.53 40.8386L154.701 40.0314C154.072 41.4559 153.15 42.5808 151.93 43.4288L153.071 45.0712ZM156.528 40.8448C157.326 39.069 157.639 37.1279 157.488 35.0429L155.493 35.1871C155.622 36.9754 155.352 38.581 154.703 40.0252L156.528 40.8448ZM157.487 35.0256C157.31 33.0597 156.727 31.2635 155.731 29.6536L154.03 30.7064C154.854 32.0365 155.344 33.5303 155.495 35.2044L157.487 35.0256ZM155.734 29.6596C154.747 28.0388 153.471 26.734 151.909 25.7612L150.852 27.4588C152.137 28.2593 153.194 29.3345 154.027 30.7004L155.734 29.6596ZM151.909 25.7612C150.318 24.7699 148.535 24.28 146.586 24.28V26.28C148.183 26.28 149.596 26.6767 150.852 27.4588L151.909 25.7612ZM146.586 24.28C144.559 24.28 142.711 24.809 141.07 25.8769L142.161 27.5531C143.46 26.7076 144.925 26.28 146.586 26.28V24.28ZM141.064 25.8809C139.464 26.9388 138.227 28.3598 137.358 30.123L139.153 31.007C139.87 29.5502 140.874 28.4045 142.167 27.5491L141.064 25.8809ZM137.361 30.1178C136.477 31.8859 136.137 33.8457 136.314 35.968L138.307 35.802C138.157 34.0043 138.447 32.4174 139.15 31.0122L137.361 30.1178ZM136.316 35.9883C136.519 37.9421 137.156 39.7401 138.224 41.3687L139.897 40.2713C139.005 38.9132 138.475 37.4212 138.305 35.7817L136.316 35.9883ZM138.228 41.3747C139.29 42.967 140.636 44.2505 142.26 45.2149L143.281 43.4951C141.919 42.6862 140.791 41.613 139.893 40.2653L138.228 41.3747ZM142.266 45.2183C143.933 46.1928 145.728 46.685 147.636 46.685V44.685C146.089 44.685 144.642 44.2905 143.275 43.4917L142.266 45.2183ZM207.486 34.905H208.486L208.485 34.8979L207.486 34.905ZM207.486 53V54H208.486V53H207.486ZM198.946 53H197.946V54H198.946V53ZM197.826 30.145L196.931 30.5922L196.934 30.5979L197.826 30.145ZM194.711 26.575L194.149 27.4025L194.156 27.407L194.711 26.575ZM185.786 26.575L185.203 25.7623L185.786 26.575ZM182.916 30.145L182.005 29.7323L182.002 29.7389L182.916 30.145ZM181.936 53V54H182.936V53H181.936ZM173.396 53H172.396V54H173.396V53ZM173.396 18V17H172.396V18H173.396ZM181.936 18H182.936V17H181.936V18ZM181.936 22.13H180.936V25.142L182.737 22.7281L181.936 22.13ZM186.101 18.42L186.593 19.2906L186.597 19.2882L186.101 18.42ZM199.996 19.47L199.426 20.292L199.435 20.2983L199.996 19.47ZM205.491 25.945L204.587 26.3734L204.59 26.3797L205.491 25.945ZM206.486 34.905V53H208.486V34.905H206.486ZM207.486 52H198.946V54H207.486V52ZM199.946 53V35.045H197.946V53H199.946ZM199.946 35.045C199.946 33.1053 199.541 31.3147 198.717 29.6921L196.934 30.5979C197.603 31.9153 197.946 33.3913 197.946 35.045H199.946ZM198.72 29.6978C197.899 28.056 196.747 26.7305 195.265 25.7429L194.156 27.407C195.334 28.1928 196.259 29.2473 196.931 30.5922L198.72 29.6978ZM195.272 25.7475C193.784 24.7379 192.068 24.245 190.161 24.245V26.245C191.707 26.245 193.023 26.6387 194.149 27.4025L195.272 25.7475ZM190.161 24.245C188.294 24.245 186.627 24.7412 185.203 25.7623L186.368 27.3877C187.417 26.6355 188.667 26.245 190.161 26.245V24.245ZM185.203 25.7623C183.813 26.7591 182.748 28.0919 182.005 29.7323L183.826 30.5577C184.436 29.2114 185.285 28.1643 186.368 27.3877L185.203 25.7623ZM182.002 29.7389C181.285 31.3509 180.936 33.1248 180.936 35.045H182.936C182.936 33.3718 183.239 31.8791 183.829 30.5511L182.002 29.7389ZM180.936 35.045V53H182.936V35.045H180.936ZM181.936 52H173.396V54H181.936V52ZM174.396 53V18H172.396V53H174.396ZM173.396 19H181.936V17H173.396V19ZM180.936 18V22.13H182.936V18H180.936ZM182.737 22.7281C183.825 21.2699 185.11 20.1285 186.593 19.2906L185.608 17.5494C183.871 18.5315 182.379 19.8635 181.134 21.5319L182.737 22.7281ZM186.597 19.2882C188.065 18.449 189.735 18.02 191.631 18.02V16.02C189.42 16.02 187.402 16.5243 185.604 17.5518L186.597 19.2882ZM191.631 18.02C194.673 18.02 197.257 18.7885 199.426 20.2919L200.565 18.6481C198.021 16.8848 195.028 16.02 191.631 16.02V18.02ZM199.435 20.2983C201.661 21.8037 203.377 23.8212 204.587 26.3734L206.394 25.5166C205.038 22.6555 203.09 20.3563 200.556 18.6417L199.435 20.2983ZM204.59 26.3797C205.827 28.9417 206.463 31.7805 206.486 34.9121L208.485 34.8979C208.461 31.4961 207.768 28.3616 206.391 25.5103L204.59 26.3797ZM235.922 42.465L236.398 41.5854L235.704 41.2098L235.177 41.7982L235.922 42.465ZM243.622 46.63L244.429 47.2217L245.108 46.2965L244.098 45.7504L243.622 46.63ZM237.567 51.915L238.048 52.7919L237.567 51.915ZM220.802 51.425L220.27 52.2717L220.274 52.2738L220.802 51.425ZM214.467 44.775L213.594 45.2625L213.599 45.2711L214.467 44.775ZM213.487 28.325L214.413 28.7048L214.414 28.7014L213.487 28.325ZM217.232 22.445L216.506 21.7581L216.505 21.7584L217.232 22.445ZM222.832 18.455L222.422 17.5433L222.832 18.455ZM237.567 19.015L238.048 18.1381L237.567 19.015ZM243.622 24.37L244.095 25.2512L245.1 24.7123L244.434 23.7864L243.622 24.37ZM235.922 28.5L235.17 29.1585L235.694 29.7574L236.395 29.3812L235.922 28.5ZM233.017 26.33L232.594 27.2357L232.601 27.2391L233.017 26.33ZM225.072 26.96L225.63 27.7899L225.64 27.7832L225.072 26.96ZM221.852 30.6L222.736 31.0692L222.739 31.0635L221.852 30.6ZM221.852 40.4L220.966 40.8635L220.969 40.8692L221.852 40.4ZM225.072 44.005L224.514 44.8348L225.072 44.005ZM233.087 44.6L233.511 45.5057L233.519 45.502L233.527 45.4982L233.087 44.6ZM235.447 43.3446L243.147 47.5096L244.098 45.7504L236.398 41.5854L235.447 43.3446ZM242.816 46.0383C241.294 48.1119 239.388 49.777 237.087 51.0381L238.048 52.7919C240.601 51.393 242.731 49.5348 244.429 47.2217L242.816 46.0383ZM237.087 51.0381C234.813 52.2843 232.331 52.91 229.622 52.91V54.91C232.654 54.91 235.469 54.2057 238.048 52.7919L237.087 51.0381ZM229.622 52.91C226.584 52.91 223.828 52.1312 221.331 50.5762L220.274 52.2738C223.097 54.0321 226.221 54.91 229.622 54.91V52.91ZM221.334 50.5783C218.841 49.0115 216.843 46.9168 215.336 44.2789L213.599 45.2711C215.265 48.1865 217.491 50.5252 220.27 52.2717L221.334 50.5783ZM215.341 44.2875C213.865 41.6448 213.122 38.7224 213.122 35.5H211.122C211.122 39.0443 211.943 42.3052 213.594 45.2625L215.341 44.2875ZM213.122 35.5C213.122 33.0542 213.555 30.7926 214.413 28.7048L212.562 27.9452C211.599 30.2908 211.122 32.8124 211.122 35.5H213.122ZM214.414 28.7014C215.279 26.5709 216.462 24.7173 217.959 23.1316L216.505 21.7584C214.83 23.5327 213.515 25.5991 212.561 27.9486L214.414 28.7014ZM217.959 23.1319C219.48 21.5228 221.24 20.2694 223.243 19.3667L222.422 17.5433C220.179 18.5539 218.205 19.9605 216.506 21.7581L217.959 23.1319ZM223.243 19.3667C225.233 18.4701 227.356 18.02 229.622 18.02V16.02C227.082 16.02 224.678 16.5265 222.422 17.5433L223.243 19.3667ZM229.622 18.02C232.331 18.02 234.813 18.6457 237.087 19.8919L238.048 18.1381C235.469 16.7243 232.654 16.02 229.622 16.02V18.02ZM237.087 19.8919C239.383 21.1504 241.288 22.8353 242.81 24.9536L244.434 23.7864C242.737 21.4247 240.605 19.5396 238.048 18.1381L237.087 19.8919ZM243.15 23.4888L235.45 27.6188L236.395 29.3812L244.095 25.2512L243.15 23.4888ZM236.675 27.8415C235.766 26.8026 234.683 25.9935 233.434 25.4209L232.601 27.2391C233.592 27.6931 234.446 28.3308 235.17 29.1585L236.675 27.8415ZM233.441 25.4243C232.217 24.8513 230.941 24.56 229.622 24.56V26.56C230.637 26.56 231.624 26.7821 232.594 27.2357L233.441 25.4243ZM229.622 24.56C227.744 24.56 226.029 25.0857 224.505 26.1368L225.64 27.7832C226.823 26.9677 228.141 26.56 229.622 26.56V24.56ZM224.514 26.1302C223.016 27.1377 221.833 28.4799 220.966 30.1365L222.739 31.0635C223.459 29.6868 224.422 28.6023 225.63 27.7898L224.514 26.1302ZM220.969 30.1308C220.095 31.7757 219.662 33.5713 219.662 35.5H221.662C221.662 33.882 222.023 32.4109 222.736 31.0692L220.969 30.1308ZM219.662 35.5C219.662 37.4077 220.096 39.2005 220.966 40.8635L222.739 39.9365C222.022 38.5662 221.662 37.0923 221.662 35.5H219.662ZM220.969 40.8692C221.837 42.5021 223.02 43.8297 224.514 44.8348L225.63 43.1752C224.419 42.3603 223.455 41.2846 222.736 39.9308L220.969 40.8692ZM224.514 44.8348C226.038 45.8593 227.75 46.37 229.622 46.37V44.37C228.135 44.37 226.814 43.9707 225.63 43.1752L224.514 44.8348ZM229.622 46.37C230.982 46.37 232.282 46.0813 233.511 45.5057L232.664 43.6943C231.7 44.1454 230.69 44.37 229.622 44.37V46.37ZM233.527 45.4982C234.736 44.9064 235.786 44.1171 236.668 43.1318L235.177 41.7982C234.472 42.5862 233.632 43.2203 232.648 43.7018L233.527 45.4982ZM255.871 51.425L255.339 52.2717L255.342 52.2738L255.871 51.425ZM249.536 44.74L248.663 45.2275L248.666 45.233L249.536 44.74ZM248.556 28.325L249.481 28.7048L249.482 28.7014L248.556 28.325ZM252.301 22.445L251.574 21.7581L251.574 21.7584L252.301 22.445ZM257.901 18.455L257.49 17.5433L257.901 18.455ZM272.181 18.77L271.723 19.6589L271.734 19.6644L272.181 18.77ZM277.991 23.495L278.775 22.8748L277.991 23.495ZM281.946 38.405V39.405H282.814L282.936 38.5453L281.946 38.405ZM256.361 38.405V37.405H255.08L255.391 38.6475L256.361 38.405ZM257.971 41.94L257.156 42.5196L257.162 42.5282L257.971 41.94ZM260.806 44.425L260.323 45.3008L260.33 45.3046L260.337 45.3083L260.806 44.425ZM264.691 45.37L264.675 46.3699L264.675 46.3699L264.691 45.37ZM268.751 44.32L269.263 45.179L269.268 45.1761L268.751 44.32ZM271.831 41.31L272.058 40.3361L271.374 40.1767L270.992 40.7661L271.831 41.31ZM280.546 43.34L281.455 43.7569L281.965 42.6439L280.773 42.3661L280.546 43.34ZM274.176 50.97L274.746 51.7915L274.751 51.7883L274.176 50.97ZM256.081 32L255.103 31.7916L254.845 33H256.081V32ZM273.301 32V33H274.501L274.284 31.8197L273.301 32ZM271.656 28.22L270.842 28.8012L270.849 28.8107L270.856 28.82L271.656 28.22ZM268.611 25.49L268.124 26.3634L268.611 25.49ZM260.806 25.49L261.287 26.3666L261.294 26.363L261.3 26.3593L260.806 25.49ZM257.761 28.185L256.955 27.5929L256.953 27.5958L257.761 28.185ZM264.691 52.91C261.652 52.91 258.896 52.1312 256.399 50.5762L255.342 52.2738C258.165 54.0321 261.289 54.91 264.691 54.91V52.91ZM256.403 50.5783C253.911 49.0127 251.914 46.9079 250.406 44.247L248.666 45.233C250.331 48.1721 252.557 50.5239 255.339 52.2717L256.403 50.5783ZM250.409 44.2525C248.933 41.6098 248.191 38.6874 248.191 35.465H246.191C246.191 39.0093 247.012 42.2702 248.663 45.2275L250.409 44.2525ZM248.191 35.465C248.191 33.0438 248.623 30.7937 249.481 28.7048L247.631 27.9452C246.668 30.2897 246.191 32.7995 246.191 35.465H248.191ZM249.482 28.7014C250.348 26.5709 251.53 24.7173 253.028 23.1316L251.574 21.7584C249.898 23.5327 248.584 25.5991 247.629 27.9486L249.482 28.7014ZM253.028 23.1319C254.548 21.5228 256.308 20.2694 258.312 19.3667L257.49 17.5433C255.247 18.5539 253.273 19.9605 251.574 21.7581L253.028 23.1319ZM258.312 19.3667C260.302 18.4701 262.424 18.02 264.691 18.02V16.02C262.151 16.02 259.747 16.5265 257.49 17.5433L258.312 19.3667ZM264.691 18.02C267.273 18.02 269.611 18.5704 271.723 19.6589L272.639 17.8811C270.224 16.6362 267.568 16.02 264.691 16.02V18.02ZM271.734 19.6644C273.889 20.7421 275.711 22.2235 277.206 24.1152L278.775 22.8748C277.098 20.7532 275.046 19.0845 272.628 17.8756L271.734 19.6644ZM277.206 24.1152C278.708 26.0141 279.804 28.181 280.493 30.6263L282.418 30.0837C281.661 27.3956 280.447 24.9893 278.775 22.8748L277.206 24.1152ZM280.493 30.6263C281.177 33.0512 281.334 35.5939 280.956 38.2647L282.936 38.5453C283.351 35.6161 283.182 32.7922 282.418 30.0837L280.493 30.6263ZM281.946 37.405H256.361V39.405H281.946V37.405ZM255.391 38.6475C255.746 40.0697 256.334 41.3633 257.156 42.5195L258.786 41.3605C258.115 40.4167 257.629 39.3537 257.331 38.1625L255.391 38.6475ZM257.162 42.5282C257.998 43.6769 259.055 44.6021 260.323 45.3008L261.288 43.5492C260.27 42.9879 259.437 42.2564 258.78 41.3518L257.162 42.5282ZM260.337 45.3083C261.636 45.9974 263.089 46.3443 264.675 46.3699L264.707 44.3701C263.399 44.349 262.263 44.0659 261.275 43.5417L260.337 45.3083ZM264.675 46.3699C266.343 46.3959 267.881 46.0028 269.263 45.1789L268.239 43.4611C267.194 44.0838 266.025 44.3907 264.706 44.3701L264.675 46.3699ZM269.268 45.1761C270.639 44.348 271.774 43.2359 272.67 41.8539L270.992 40.7661C270.254 41.9041 269.336 42.7987 268.234 43.4639L269.268 45.1761ZM271.604 42.2839L280.319 44.3139L280.773 42.3661L272.058 40.3361L271.604 42.2839ZM279.637 42.9231C278.288 45.8636 276.281 48.2691 273.601 50.1517L274.751 51.7883C277.717 49.7042 279.957 47.023 281.455 43.7569L279.637 42.9231ZM273.606 50.1485C270.953 51.99 267.991 52.91 264.691 52.91V54.91C268.391 54.91 271.752 53.87 274.746 51.7915L273.606 50.1485ZM256.081 33H273.301V31H256.081V33ZM274.284 31.8197C274 30.2701 273.39 28.8659 272.456 27.62L270.856 28.82C271.601 29.8141 272.088 30.9299 272.317 32.1803L274.284 31.8197ZM272.47 27.6388C271.568 26.3765 270.442 25.3662 269.098 24.6166L268.124 26.3634C269.206 26.9672 270.11 27.7768 270.842 28.8012L272.47 27.6388ZM269.098 24.6166C267.734 23.8563 266.26 23.475 264.691 23.475V25.475C265.922 25.475 267.061 25.7704 268.124 26.3634L269.098 24.6166ZM264.691 23.475C263.122 23.475 261.656 23.8564 260.312 24.6207L261.3 26.3593C262.336 25.7703 263.46 25.475 264.691 25.475V23.475ZM260.325 24.6134C259.001 25.34 257.877 26.3377 256.955 27.5929L258.567 28.7771C259.324 27.7457 260.23 26.9467 261.287 26.3666L260.325 24.6134ZM256.953 27.5958C256.049 28.835 255.434 30.2378 255.103 31.7916L257.059 32.2084C257.334 30.9155 257.839 29.775 258.569 28.7742L256.953 27.5958ZM314.237 0.499996V-0.500004H313.237V0.499996H314.237ZM322.777 0.499996H323.777V-0.500004H322.777V0.499996ZM322.777 53V54H323.777V53H322.777ZM314.237 53H313.237V54H314.237V53ZM314.237 48.625H315.237V45.5121L313.424 48.0426L314.237 48.625ZM296.947 52.475L297.343 51.5569L296.947 52.475ZM291.067 48.52L290.355 49.2223L290.365 49.232L291.067 48.52ZM287.112 42.64L286.194 43.0363L287.112 42.64ZM287.112 28.36L286.194 27.9637L287.112 28.36ZM291.067 22.515L291.774 23.2221L291.067 22.515ZM296.947 18.525L296.551 17.6069L296.947 18.525ZM310.002 18.56L309.503 19.4268L309.512 19.4319L310.002 18.56ZM314.237 22.375L313.42 22.9517L315.237 25.5257V22.375H314.237ZM309.022 44.32L308.477 43.4816L309.022 44.32ZM312.312 40.645L313.201 41.103L313.204 41.0975L312.312 40.645ZM312.312 30.355L311.42 30.8075L311.423 30.813L312.312 30.355ZM308.987 26.645L308.442 27.4835L308.448 27.4875L308.987 26.645ZM299.292 26.68L299.819 27.5303L299.828 27.5242L299.292 26.68ZM295.757 30.355L296.624 30.854V30.854L295.757 30.355ZM295.757 40.645L296.624 40.146L295.757 40.645ZM299.292 44.32L298.766 45.1703L298.772 45.1739L299.292 44.32ZM314.237 1.5H322.777V-0.500004H314.237V1.5ZM321.777 0.499996V53H323.777V0.499996H321.777ZM322.777 52H314.237V54H322.777V52ZM315.237 53V48.625H313.237V53H315.237ZM313.424 48.0426C312.389 49.4872 311.086 50.6629 309.503 51.5732L310.501 53.3068C312.325 52.2571 313.845 50.8895 315.05 49.2074L313.424 48.0426ZM309.503 51.5732C307.972 52.4543 306.177 52.91 304.087 52.91V54.91C306.477 54.91 308.626 54.3857 310.501 53.3068L309.503 51.5732ZM304.087 52.91C301.673 52.91 299.428 52.4567 297.343 51.5569L296.551 53.3931C298.899 54.4067 301.415 54.91 304.087 54.91V52.91ZM297.343 51.5569C295.24 50.6489 293.384 49.4001 291.769 47.808L290.365 49.232C292.157 50.9999 294.221 52.3878 296.551 53.3931L297.343 51.5569ZM291.779 47.8178C290.187 46.2036 288.938 44.3476 288.03 42.2437L286.194 43.0363C287.199 45.3657 288.587 47.4297 290.355 49.2222L291.779 47.8178ZM288.03 42.2437C287.13 40.1588 286.677 37.9145 286.677 35.5H284.677C284.677 38.1722 285.18 40.6878 286.194 43.0363L288.03 42.2437ZM286.677 35.5C286.677 33.0855 287.13 30.8412 288.03 28.7562L286.194 27.9637C285.18 30.3122 284.677 32.8278 284.677 35.5H286.677ZM288.03 28.7562C288.938 26.6537 290.185 24.8113 291.774 23.2221L290.36 21.8079C288.589 23.5787 287.2 25.633 286.194 27.9637L288.03 28.7562ZM291.774 23.2221C293.388 21.6083 295.242 20.3498 297.343 19.4431L296.551 17.6069C294.218 18.6135 292.153 20.015 290.36 21.8079L291.774 23.2221ZM297.343 19.4431C299.428 18.5433 301.673 18.09 304.087 18.09V16.09C301.415 16.09 298.899 16.5933 296.551 17.6069L297.343 19.4431ZM304.087 18.09C306.177 18.09 307.972 18.5457 309.503 19.4268L310.501 17.6932C308.626 16.6143 306.477 16.09 304.087 16.09V18.09ZM309.512 19.4319C311.087 20.3162 312.386 21.4873 313.42 22.9517L315.054 21.7983C313.848 20.0894 312.324 18.7172 310.492 17.6881L309.512 19.4319ZM315.237 22.375V0.499996H313.237V22.375H315.237ZM304.192 46.685C306.188 46.685 307.99 46.1833 309.567 45.1584L308.477 43.4816C307.254 44.2767 305.837 44.685 304.192 44.685V46.685ZM309.567 45.1584C311.119 44.15 312.331 42.7915 313.201 41.103L311.423 40.187C310.706 41.5785 309.726 42.67 308.477 43.4816L309.567 45.1584ZM313.204 41.0975C314.073 39.3849 314.502 37.5135 314.502 35.5H312.502C312.502 37.2199 312.138 38.7784 311.42 40.1925L313.204 41.0975ZM314.502 35.5C314.502 33.4655 314.074 31.5913 313.201 29.897L311.423 30.813C312.137 32.1987 312.502 33.7545 312.502 35.5H314.502ZM313.204 29.9025C312.333 28.1862 311.105 26.8124 309.526 25.8025L308.448 27.4875C309.716 28.2976 310.705 29.3971 311.42 30.8075L313.204 29.9025ZM309.532 25.8066C307.958 24.783 306.167 24.28 304.192 24.28V26.28C305.811 26.28 307.217 26.687 308.442 27.4834L309.532 25.8066ZM304.192 24.28C302.212 24.28 300.392 24.7973 298.756 25.8358L299.828 27.5242C301.133 26.696 302.579 26.28 304.192 26.28V24.28ZM298.766 25.8297C297.151 26.8294 295.857 28.1767 294.891 29.856L296.624 30.854C297.43 29.4533 298.493 28.3506 299.819 27.5303L298.766 25.8297ZM294.891 29.856C293.911 31.5575 293.427 33.4464 293.427 35.5H295.427C295.427 33.7736 295.83 32.2325 296.624 30.854L294.891 29.856ZM293.427 35.5C293.427 37.5536 293.911 39.4425 294.891 41.144L296.624 40.146C295.83 38.7675 295.427 37.2264 295.427 35.5H293.427ZM294.891 41.144C295.857 42.8233 297.151 44.1706 298.766 45.1703L299.819 43.4697C298.493 42.6494 297.43 41.5467 296.624 40.146L294.891 41.144ZM298.772 45.1739C300.424 46.1809 302.238 46.685 304.192 46.685V44.685C302.6 44.685 301.147 44.2791 299.813 43.4661L298.772 45.1739Z" fill="black"/>
</svg>
