<svg width="93" height="93" viewBox="0 0 93 93" fill="none" xmlns="http://www.w3.org/2000/svg">
<path d="M18.8325 22.0875V33.48H5.8125V61.0312H26.97V22.0875H18.8325ZM18.8325 54.6375H13.95V40.1062H18.8325V54.6375Z" fill="black" fill-opacity="0.17"/>
<path d="M30.225 33.48H38.3625V61.1475H30.225V33.48Z" fill="black" fill-opacity="0.17"/>
<path d="M30.225 22.0875H38.3625V30.225H30.225V22.0875Z" fill="black" fill-opacity="0.17"/>
<path d="M41.6175 33.48V61.0313H54.6375V64.2863H41.6175V70.9125H62.775V33.48H41.6175ZM54.6375 54.6375H49.755V40.1063H54.6375V54.6375Z" fill="black" fill-opacity="0.17"/>
<path d="M66.03 33.48V61.0313H79.05V64.2863H66.03V70.9125H87.1875V33.48H66.03ZM79.05 54.6375H74.1675V40.1063H79.05V54.6375Z" fill="black" fill-opacity="0.17"/>
</svg>
