<svg width="106" height="77" viewBox="0 0 106 77" fill="none" xmlns="http://www.w3.org/2000/svg">
<g clip-path="url(#clip0_6_34)">
<path fill-rule="evenodd" clip-rule="evenodd" d="M-0.136597 39.3563L4.00942 49.3778C4.35529 50.2138 5.37048 50.9019 6.27367 50.915L29.9024 51.2465C33.2228 51.2935 37.8704 49.4881 40.2882 47.2092L58.2465 30.2823C60.4413 28.2137 61.3718 24.2446 60.3222 21.4109L53.8081 3.82104L50.3352 3.93135L52.3973 8.67751C53.3573 10.8892 52.7088 14.0129 50.9407 15.6638L28.7473 36.374C26.9825 38.0211 23.5992 39.3563 21.1792 39.3563H-0.136597ZM42.2295 55.7589C41.6219 54.0551 42.2241 51.6948 43.5764 50.488L64.8425 31.5039C65.5162 30.9027 66.7975 30.4095 67.6985 30.403L101.113 30.1501C102.322 30.1408 103.731 31.013 104.26 32.1013L106.148 35.9896C106.411 36.5308 106.134 36.9769 105.531 36.9857L77.586 37.4034C76.3806 37.4214 74.6672 38.0871 73.7651 38.8839L52.8487 57.3726C51.7193 58.3704 51.1679 60.3494 51.6138 61.7829L55.0692 72.889C55.2484 73.4651 54.8998 73.9244 54.2988 73.914L49.2228 73.8288C48.919 73.8233 48.5906 73.5891 48.4901 73.3073L42.2295 55.7589Z" fill="black" fill-opacity="0.17"/>
</g>
<defs>
<clipPath id="clip0_6_34">
<rect width="106" height="77" fill="white"/>
</clipPath>
</defs>
</svg>
