<svg width="114" height="63" viewBox="0 0 114 63" fill="none" xmlns="http://www.w3.org/2000/svg">
<path fill-rule="evenodd" clip-rule="evenodd" d="M62.4939 8.30275C61.3623 8.30275 60.4447 9.2181 60.4447 10.324V15.05C60.4445 15.2495 60.484 15.4471 60.561 15.6314C60.6379 15.8157 60.7508 15.9831 60.8931 16.1239C61.0353 16.2647 61.2042 16.3762 61.39 16.452C61.5758 16.5277 61.7749 16.5663 61.9757 16.5654H106.966C107.167 16.5659 107.366 16.527 107.551 16.4511C107.737 16.3752 107.905 16.2637 108.048 16.123C108.19 15.9822 108.303 15.815 108.38 15.6309C108.457 15.4468 108.497 15.2494 108.497 15.05V9.8181C108.497 9.61858 108.458 9.42099 108.381 9.23669C108.304 9.0524 108.191 8.88503 108.049 8.74421C107.906 8.60339 107.737 8.4919 107.552 8.41614C107.366 8.34038 107.167 8.30184 106.966 8.30275H62.4939ZM61.9757 20.4681C61.775 20.4677 61.5761 20.5065 61.3905 20.5824C61.2049 20.6583 61.0362 20.7698 60.894 20.9105C60.7518 21.0513 60.6389 21.2185 60.5618 21.4026C60.4847 21.5867 60.4449 21.7841 60.4447 21.9835V27.2154C60.4445 27.4149 60.484 27.6125 60.561 27.7968C60.6379 27.9811 60.7508 28.1485 60.8931 28.2893C61.0353 28.4301 61.2042 28.5416 61.39 28.6174C61.5758 28.6931 61.7749 28.7317 61.9757 28.7308H106.966C107.167 28.7313 107.366 28.6924 107.551 28.6165C107.737 28.5406 107.905 28.4291 108.048 28.2884C108.19 28.1476 108.303 27.9804 108.38 27.7963C108.457 27.6122 108.497 27.4148 108.497 27.2154V21.9835C108.497 21.784 108.458 21.5864 108.381 21.4021C108.304 21.2178 108.191 21.0504 108.049 20.9096C107.906 20.7688 107.737 20.6573 107.552 20.5815C107.366 20.5058 107.167 20.4672 106.966 20.4681H61.9757ZM61.9757 33.648C61.775 33.6475 61.5761 33.6863 61.3905 33.7622C61.2049 33.8381 61.0362 33.9496 60.894 34.0903C60.7518 34.2311 60.6389 34.3983 60.5618 34.5824C60.4847 34.7665 60.4449 34.9639 60.4447 35.1633V40.3946C60.4445 40.5941 60.484 40.7917 60.561 40.976C60.6379 41.1603 60.7508 41.3277 60.8931 41.4685C61.0353 41.6093 61.2042 41.7208 61.39 41.7966C61.5758 41.8723 61.7749 41.9109 61.9757 41.9099H106.966C107.167 41.9104 107.366 41.8716 107.551 41.7957C107.737 41.7198 107.905 41.6083 108.048 41.4676C108.19 41.3268 108.303 41.1596 108.38 40.9755C108.457 40.7914 108.497 40.594 108.497 40.3946V35.1633C108.497 34.9638 108.458 34.7662 108.381 34.5819C108.304 34.3976 108.191 34.2302 108.049 34.0894C107.906 33.9486 107.737 33.8371 107.552 33.7613C107.366 33.6856 107.167 33.647 106.966 33.648H61.9757ZM61.9757 46.8271C61.775 46.8266 61.5761 46.8655 61.3905 46.9414C61.2049 47.0173 61.0362 47.1288 60.894 47.2695C60.7518 47.4103 60.6389 47.5775 60.5618 47.7616C60.4847 47.9457 60.4449 48.1431 60.4447 48.3425V53.5738C60.4444 53.7733 60.4839 53.971 60.5608 54.1554C60.6377 54.3397 60.7506 54.5072 60.8928 54.6481C61.0351 54.789 61.204 54.9005 61.3899 54.9763C61.5757 55.0521 61.7748 55.0907 61.9757 55.0898H106.966C107.167 55.0902 107.366 55.0514 107.551 54.9755C107.737 54.8995 107.906 54.7879 108.048 54.6471C108.19 54.5063 108.303 54.3391 108.38 54.1549C108.457 53.9707 108.497 53.7732 108.497 53.5738V48.3425C108.497 48.143 108.458 47.9454 108.381 47.7611C108.304 47.5768 108.191 47.4094 108.049 47.2686C107.906 47.1278 107.737 47.0163 107.552 46.9405C107.366 46.8648 107.167 46.8262 106.966 46.8271H61.9757ZM48.176 54.4333C48.1759 54.6327 48.2154 54.8302 48.2922 55.0144C48.369 55.1987 48.4816 55.366 48.6235 55.507C48.7655 55.648 48.934 55.7598 49.1195 55.836C49.305 55.9122 49.5038 55.9513 49.7045 55.9512H54.9805C55.1813 55.9517 55.3802 55.9128 55.5658 55.8367C55.7514 55.7605 55.9201 55.6488 56.0621 55.5077C56.204 55.3667 56.3166 55.1992 56.3932 55.0148C56.4698 54.8304 56.509 54.6328 56.5085 54.4333V9.81998C56.5085 9.62062 56.4689 9.42323 56.3921 9.23907C56.3152 9.05491 56.2026 8.88759 56.0607 8.74669C55.9187 8.60579 55.7502 8.49406 55.5648 8.41788C55.3793 8.34171 55.1806 8.30259 54.9799 8.30275H49.7039C49.5031 8.30225 49.3042 8.34118 49.1186 8.41728C48.933 8.49338 48.7643 8.60517 48.6224 8.74621C48.4804 8.88726 48.3679 9.05478 48.2913 9.23916C48.2147 9.42354 48.1755 9.62114 48.176 9.8206V54.4333ZM20.5714 54.4333C20.5714 54.6327 20.6108 54.8302 20.6876 55.0144C20.7644 55.1987 20.877 55.366 21.019 55.507C21.1609 55.648 21.3295 55.7598 21.515 55.836C21.7005 55.9122 21.8992 55.9513 22.1 55.9512H27.376C27.5768 55.9517 27.7757 55.9128 27.9613 55.8367C28.1469 55.7605 28.3155 55.6488 28.4575 55.5077C28.5995 55.3667 28.712 55.1992 28.7886 55.0148C28.8652 54.8304 28.9044 54.6328 28.9039 54.4333V9.81998C28.9039 9.62062 28.8644 9.42323 28.7875 9.23907C28.7107 9.05491 28.5981 8.88759 28.4561 8.74669C28.3142 8.60579 28.1457 8.49406 27.9602 8.41788C27.7748 8.34171 27.576 8.30259 27.3754 8.30275H22.0993C21.8986 8.30225 21.6996 8.34118 21.514 8.41728C21.3284 8.49338 21.1598 8.60517 21.0178 8.74621C20.8759 8.88726 20.7633 9.05478 20.6867 9.23916C20.6101 9.42354 20.5709 9.62114 20.5714 9.8206V54.4333ZM14.5905 54.4333C14.5905 54.6327 14.551 54.8302 14.4743 55.0144C14.3975 55.1987 14.2849 55.366 14.1429 55.507C14.0009 55.648 13.8324 55.7598 13.6469 55.836C13.4614 55.9122 13.2626 55.9513 13.0619 55.9512H7.78588C7.58509 55.9517 7.38618 55.9128 7.20058 55.8367C7.01498 55.7605 6.84635 55.6488 6.70437 55.5077C6.56239 55.3667 6.44986 55.1992 6.37326 55.0148C6.29665 54.8304 6.25747 54.6328 6.25797 54.4333V9.81998C6.25797 9.62062 6.29752 9.42323 6.37435 9.23907C6.45118 9.05491 6.56379 8.88759 6.70574 8.74669C6.8477 8.60579 7.01621 8.49406 7.20166 8.41788C7.3871 8.34171 7.58584 8.30259 7.78651 8.30275H13.0625C13.2633 8.30225 13.4622 8.34118 13.6478 8.41728C13.8334 8.49338 14.0021 8.60517 14.1441 8.74621C14.286 8.88726 14.3986 9.05478 14.4752 9.23916C14.5518 9.42354 14.591 9.62114 14.5905 9.8206V54.4333ZM33.8625 54.4333C33.8624 54.6327 33.9019 54.8302 33.9787 55.0144C34.0555 55.1987 34.1681 55.366 34.3101 55.507C34.452 55.648 34.6206 55.7598 34.806 55.836C34.9915 55.9122 35.1903 55.9513 35.391 55.9512H40.6671C40.8679 55.9517 41.0668 55.9128 41.2524 55.8367C41.438 55.7605 41.6066 55.6488 41.7486 55.5077C41.8906 55.3667 42.0031 55.1992 42.0797 55.0148C42.1563 54.8304 42.1955 54.6328 42.195 54.4333V9.81998C42.195 9.62062 42.1554 9.42323 42.0786 9.23907C42.0018 9.05491 41.8892 8.88759 41.7472 8.74669C41.6053 8.60579 41.4367 8.49406 41.2513 8.41788C41.0659 8.34171 40.8671 8.30259 40.6665 8.30275H35.3904C35.1896 8.30225 34.9907 8.34118 34.8051 8.41728C34.6195 8.49338 34.4509 8.60517 34.3089 8.74621C34.1669 8.88726 34.0544 9.05478 33.9778 9.23916C33.9012 9.42354 33.862 9.62114 33.8625 9.8206V54.4333Z" fill="#3B3B3B"/>
</svg>
