<svg width="189" height="31" viewBox="0 0 189 31" fill="none" xmlns="http://www.w3.org/2000/svg">
<path fill-rule="evenodd" clip-rule="evenodd" d="M5.98157 0.674595H15.1259V22.9761H29.3984V30.2619H5.98157V0.674595ZM51.7661 25.3779H41.3489L39.9174 30.2619H30.5708L41.6937 0.674595H51.6649L62.7886 30.2619H53.2198L51.7661 25.3779ZM49.8488 18.9801L46.5782 8.34414L43.3275 18.9801H49.8488ZM65.837 0.675332H79.4228C82.1013 0.675332 84.2645 1.03774 85.9131 1.76476C87.5617 2.49104 88.9245 3.53397 90.0009 4.89281C91.0781 6.25164 91.8584 7.83264 92.3428 9.63581C92.8271 11.4382 93.0692 13.3484 93.0692 15.3671C93.0692 18.5291 92.7097 20.9811 91.9899 22.7237C91.2693 24.4656 90.2697 25.9263 88.9924 27.1036C87.713 28.2808 86.3405 29.0647 84.8728 29.4544C82.8684 29.9932 81.0515 30.2619 79.4228 30.2619H65.837V0.674595V0.675332ZM74.9813 7.37502V23.5415H77.2228C79.1334 23.5415 80.4933 23.329 81.3003 22.9053C82.108 22.4816 82.7399 21.7413 83.1977 20.6851C83.6554 19.6296 83.8843 17.9172 83.8843 15.5487C83.8843 12.414 83.3726 10.2676 82.3501 9.11102C81.3276 7.95369 79.6318 7.37502 77.2634 7.37502H74.9821H74.9813ZM96.2793 20.4733L104.98 19.9285C105.169 21.3413 105.552 22.4174 106.131 23.1577C107.073 24.3549 108.419 24.9542 110.169 24.9542C111.474 24.9542 112.479 24.6479 113.187 24.0353C113.893 23.4234 114.246 22.7141 114.246 21.9066C114.246 21.139 113.909 20.4526 113.237 19.8474C112.564 19.2421 111.003 18.6708 108.553 18.132C104.543 17.2308 101.683 16.0336 99.9744 14.5397C98.2512 13.0465 97.3904 11.1423 97.3904 8.82833C97.3904 7.30785 97.8304 5.87152 98.7119 4.51933C99.5934 3.16714 100.919 2.10428 102.689 1.33076C104.459 0.557237 106.885 0.169739 109.966 0.169739C113.748 0.169739 116.631 0.873139 118.617 2.27921C120.602 3.68528 121.782 5.92171 122.16 8.98997L113.54 9.49409C113.311 8.16257 112.829 7.19345 112.096 6.58821C111.362 5.98298 110.35 5.68035 109.058 5.68035C107.995 5.68035 107.194 5.90547 106.656 6.35571C106.117 6.80669 105.848 7.35509 105.848 8.00092C105.848 8.47183 106.07 8.8955 106.514 9.27192C106.945 9.66311 107.968 10.0255 109.583 10.3621C113.58 11.2235 116.443 12.0944 118.172 12.9757C119.902 13.857 121.16 14.9501 121.948 16.255C122.735 17.5607 123.129 19.0207 123.129 20.6349C123.129 22.5318 122.603 24.2811 121.554 25.8828C120.504 27.4837 119.037 28.6979 117.153 29.5253C115.269 30.3527 112.894 30.7667 110.027 30.7667C104.994 30.7667 101.508 29.7976 99.5698 27.8601C97.6318 25.9226 96.5355 23.4611 96.2793 20.4733ZM127.691 0.674595H142.892C146.203 0.674595 148.682 1.4614 150.331 3.0365C151.98 4.61012 152.804 6.85024 152.804 9.75686C152.804 12.7439 151.906 15.0785 150.11 16.7599C148.313 18.442 145.571 19.2827 141.883 19.2827H136.876V30.2619H127.691V0.674595ZM136.876 13.2886H139.117C140.88 13.2886 142.118 12.9823 142.831 12.3705C143.545 11.7578 143.901 10.974 143.901 10.0189C143.901 9.09035 143.591 8.30355 142.973 7.65771C142.354 7.01188 141.19 6.68859 139.481 6.68859H136.876V13.2886ZM172.285 25.3779H161.868L160.435 30.2619H151.089L162.211 0.674595H172.184L183.307 30.2619H173.739L172.285 25.3779ZM170.367 18.9801L167.097 8.34414L163.847 18.9801H170.367Z" fill="black" fill-opacity="0.17"/>
</svg>
