<svg width="34" height="34" viewBox="0 0 34 34" fill="none" xmlns="http://www.w3.org/2000/svg">
<path d="M27.285 13.736L29.2471 26.486C29.3091 26.8895 29.2832 27.3017 29.1712 27.6943C29.0591 28.0869 28.8635 28.4507 28.5978 28.7607C28.3321 29.0706 28.0025 29.3195 27.6317 29.4903C27.2608 29.6611 26.8574 29.7497 26.4491 29.75H7.55081C7.14229 29.7501 6.73859 29.6618 6.36739 29.4912C5.99619 29.3206 5.66626 29.0718 5.40024 28.7617C5.13421 28.4517 4.93837 28.0878 4.82614 27.695C4.71392 27.3022 4.68797 26.8898 4.75006 26.486L6.71215 13.736C6.81507 13.0668 7.15426 12.4565 7.66829 12.0158C8.18232 11.575 8.8372 11.3329 9.51431 11.3333H24.4856C25.1625 11.3333 25.8171 11.5755 26.3308 12.0162C26.8445 12.4569 27.1835 13.067 27.2864 13.736H27.285Z" stroke="white" stroke-width="1.5" stroke-linecap="round" stroke-linejoin="round"/>
<path d="M19.8333 7.08333C19.8333 6.33189 19.5348 5.61122 19.0035 5.07986C18.4721 4.54851 17.7514 4.25 17 4.25C16.2486 4.25 15.5279 4.54851 14.9965 5.07986C14.4652 5.61122 14.1667 6.33189 14.1667 7.08333" stroke="white" stroke-width="1.5" stroke-linecap="round" stroke-linejoin="round"/>
</svg>
