<svg width="34" height="34" viewBox="0 0 34 34" fill="none" xmlns="http://www.w3.org/2000/svg">
<path d="M27.285 13.736L29.2471 26.486C29.3091 26.8895 29.2833 27.3017 29.1712 27.6943C29.0591 28.0869 28.8636 28.4507 28.5978 28.7606C28.3321 29.0706 28.0025 29.3195 27.6317 29.4903C27.2608 29.661 26.8575 29.7496 26.4492 29.75H7.55084C7.14231 29.75 6.73861 29.6617 6.36741 29.4912C5.99621 29.3206 5.66629 29.0718 5.40026 28.7617C5.13423 28.4517 4.93839 28.0878 4.82617 27.695C4.71394 27.3022 4.68799 26.8898 4.75009 26.486L6.71217 13.736C6.81509 13.0667 7.15428 12.4565 7.66831 12.0157C8.18234 11.575 8.83722 11.3329 9.51434 11.3333H24.4857C25.1625 11.3332 25.8171 11.5755 26.3308 12.0162C26.8445 12.4569 27.1835 13.067 27.2864 13.736H27.285Z" stroke="black" stroke-width="1.5" stroke-linecap="round" stroke-linejoin="round"/>
<path d="M19.8334 7.08333C19.8334 6.33189 19.5349 5.61122 19.0035 5.07986C18.4722 4.54851 17.7515 4.25 17.0001 4.25C16.2486 4.25 15.528 4.54851 14.9966 5.07986C14.4653 5.61122 14.1667 6.33189 14.1667 7.08333" stroke="black" stroke-width="1.5" stroke-linecap="round" stroke-linejoin="round"/>
<circle cx="26" cy="4" r="3" fill="black"/>
</svg>
