<svg width="52" height="52" viewBox="0 0 52 52" fill="none" xmlns="http://www.w3.org/2000/svg">
<path d="M26 3.25C21.5005 3.25 17.102 4.58426 13.3608 7.08407C9.61956 9.58387 6.70363 13.1369 4.98174 17.294C3.25985 21.451 2.80932 26.0252 3.68713 30.4383C4.56495 34.8514 6.73167 38.905 9.91332 42.0867C13.095 45.2683 17.1486 47.4351 21.5617 48.3129C25.9748 49.1907 30.549 48.7402 34.706 47.0183C38.8631 45.2964 42.4161 42.3804 44.9159 38.6392C47.4157 34.898 48.75 30.4995 48.75 26C48.75 19.9663 46.3531 14.1798 42.0867 9.91332C37.8202 5.64687 32.0337 3.25 26 3.25ZM25.8537 20.2312C25.4917 20.2312 25.1445 20.3751 24.8885 20.6311C24.6326 20.887 24.4887 21.2342 24.4887 21.5963V29.9487C24.4887 31.4787 23.881 32.946 22.7991 34.0279C21.7173 35.1097 20.25 35.7175 18.72 35.7175C17.19 35.7175 15.7227 35.1097 14.6409 34.0279C13.559 32.946 12.9512 31.4787 12.9512 29.9487V26.1462H17.355V29.7862C17.355 30.1483 17.4988 30.4955 17.7548 30.7514C18.0108 31.0074 18.358 31.1513 18.72 31.1513C19.082 31.1513 19.4292 31.0074 19.6852 30.7514C19.9412 30.4955 20.085 30.1483 20.085 29.7862V21.6612C20.1634 20.1863 20.8045 18.7977 21.8762 17.7814C22.9479 16.7651 24.3686 16.1986 25.8456 16.1986C27.3226 16.1986 28.7433 16.7651 29.8151 17.7814C30.8868 18.7977 31.5279 20.1863 31.6062 21.6612V23.2862L29.0388 24.115L27.2188 23.2862V21.6612C27.2253 21.4772 27.1949 21.2936 27.1294 21.1215C27.0639 20.9493 26.9647 20.7919 26.8375 20.6587C26.7103 20.5254 26.5578 20.419 26.3888 20.3456C26.2199 20.2722 26.0379 20.2333 25.8537 20.2312ZM38.74 29.9813C38.6616 31.4562 38.0205 32.8448 36.9488 33.8611C35.8771 34.8774 34.4564 35.4439 32.9794 35.4439C31.5024 35.4439 30.0817 34.8774 29.0099 33.8611C27.9382 32.8448 27.2971 31.4562 27.2188 29.9813V26.2275L29.0388 27.0562L31.6062 26.2275V29.9487C31.6062 30.3108 31.7501 30.658 32.006 30.9139C32.262 31.1699 32.6092 31.3138 32.9712 31.3138C33.3333 31.3138 33.6805 31.1699 33.9364 30.9139C34.1924 30.658 34.3362 30.3108 34.3362 29.9487V26.3088H38.74V29.9813Z" fill="#535353"/>
</svg>
